:FULLY-SPECIFIED
:DEGREES
1389
root 3.22656 16.3537 -3.23 152.97 -95.5551 -146.527
lowerback 1.99709 -0.473525 -2.79711
upperback 0.80659 -0.686323 0.463686
thorax -0.254045 -0.350931 2.05817
lowerneck -19.0028 0.579105 0.152576
upperneck 19.5224 0.43269 1.01877
head 9.28482 0.296696 0.378774
rclavicle 2.78299e-015 -1.86858e-014
rhumerus -30.819 -5.3181 -81.8178
rradius 21.5971
rwrist 29.6047
rhand -26.0769 1.88709
rfingers 7.12502
rthumb 0.471499 -28.0921
lclavicle 2.78299e-015 -1.86858e-014
lhumerus -24.2578 3.73395 89.4327
lradius 19.5635
lwrist -16.7333
lhand -27.1235 1.81631
lfingers 7.12502
lthumb -0.539372 31.7954
rfemur -28.6209 12.0849 16.4181
rtibia 20.6587
rfoot -3.2963 -19.8223
rtoes -14.6887
lfemur 6.70334 -13.026 -29.592
ltibia 10.7312
lfoot -16.3217 4.21222
ltoes -12.9407
1390
root 3.21475 16.3596 -3.2453 154.496 -95.4611 -148.033
lowerback 2.01182 -0.442459 -2.55424
upperback 0.7876 -0.640451 0.539885
thorax -0.28627 -0.326944 1.99937
lowerneck -19.0057 0.550155 0.17812
upperneck 19.481 0.413283 0.904927
head 9.27134 0.27695 0.332614
rclavicle -6.36111e-015 -3.57812e-015
rhumerus -30.8342 -5.5136 -81.7193
rradius 21.5732
rwrist 29.8904
rhand -26.0661 1.82268
rfingers 7.12502
rthumb 0.481915 -28.1565
lclavicle -6.36111e-015 -3.57812e-015
lhumerus -24.4616 4.41775 89.3384
lradius 19.0807
lwrist -17.1927
lhand -27.0773 1.80035
lfingers 7.12502
lthumb -0.49472 31.7795
rfemur -28.456 11.464 17.052
rtibia 21.2805
rfoot -3.32146 -18.9922
rtoes -13.9866
lfemur 6.63477 -13.1005 -29.4185
ltibia 11.7006
lfoot -16.5177 4.31647
ltoes -14.0947
1391
root 3.20179 16.3662 -3.26042 156.819 -95.2873 -150.28
lowerback 1.93229 -0.434551 -2.21165
upperback 0.755179 -0.621161 0.639963
thorax -0.278677 -0.316554 1.90875
lowerneck -18.9812 0.570432 0.115858
upperneck 19.4346 0.44968 0.952864
head 9.25023 0.294852 0.364053
rclavicle 1.47101e-014 8.74653e-015
rhumerus -30.7905 -5.55517 -81.7243
rradius 21.4642
rwrist 29.7443
rhand -26.2847 1.99498
rfingers 7.12502
rthumb 0.270772 -27.9846
lclavicle 1.47101e-014 8.74653e-015
lhumerus -24.7378 5.21674 89.1567
lradius 18.6694
lwrist -17.787
lhand -26.7692 1.84648
lfingers 7.12502
lthumb -0.197177 31.8261
rfemur -28.3813 10.8978 17.7498
rtibia 21.899
rfoot -3.72925 -17.8882
rtoes -13.1169
lfemur 6.4264 -13.1632 -29.1329
ltibia 12.8274
lfoot -16.6127 4.44305
ltoes -15.5628
1392
root 3.18636 16.3751 -3.27453 157.559 -95.2023 -150.977
lowerback 1.84694 -0.439871 -2.04997
upperback 0.758397 -0.623351 0.707489
thorax -0.228507 -0.318136 1.88645
lowerneck -19.0226 0.602911 0.131872
upperneck 19.4232 0.515229 0.848395
head 9.2537 0.315134 0.334347
rclavicle -1.59028e-015 -4.77083e-015
rhumerus -30.709 -5.63596 -81.6421
rradius 21.3829
rwrist 30.3053
rhand -26.0161 1.88467
rfingers 7.12502
rthumb 0.530216 -28.0944
lclavicle -1.59028e-015 -4.77083e-015
lhumerus -24.9921 6.06986 88.9838
lradius 18.2113
lwrist -18.4073
lhand -26.7856 1.72026
lfingers 7.12502
lthumb -0.213003 31.6999
rfemur -28.249 10.4559 18.1896
rtibia 22.452
rfoot -4.12127 -16.8602
rtoes -12.1014
lfemur 6.19393 -13.1486 -29.0278
ltibia 14.0632
lfoot -16.7311 4.37105
ltoes -16.6842
1393
root 3.17005 16.3856 -3.28932 157.523 -95.153 -150.825
lowerback 1.67161 -0.405458 -1.94272
upperback 0.743605 -0.572124 0.708965
thorax -0.149002 -0.292949 1.8253
lowerneck -19.0904 0.57395 0.126929
upperneck 19.4392 0.469471 0.87946
head 9.27167 0.297324 0.340112
rclavicle 4.37326e-015 -2.38542e-015
rhumerus -30.6757 -5.64883 -81.7012
rradius 21.3265
rwrist 30.0755
rhand -26.1524 1.9081
rfingers 7.12502
rthumb 0.398585 -28.0713
lclavicle 4.37326e-015 -2.38542e-015
lhumerus -25.2639 6.46949 88.8675
lradius 17.8453
lwrist -18.7465
lhand -26.5401 1.74521
lfingers 7.12502
lthumb 0.0241231 31.725
rfemur -28.151 10.1271 18.4729
rtibia 22.9365
rfoot -4.42287 -16.1808
rtoes -11.611
lfemur 5.77727 -12.9544 -28.9518
ltibia 15.4548
lfoot -16.7616 4.11557
ltoes -17.668
1394
root 3.15199 16.3964 -3.30517 158.469 -95.1046 -151.705
lowerback 1.54179 -0.399137 -1.75067
upperback 0.710734 -0.558444 0.749368
thorax -0.112093 -0.285774 1.75773
lowerneck -19.0733 0.575698 0.148412
upperneck 19.4643 0.482934 0.802046
head 9.27752 0.296123 0.311663
rclavicle -4.37326e-015 -1.19271e-014
rhumerus -30.6856 -5.70056 -81.6746
rradius 21.2512
rwrist 30.2781
rhand -26.0407 1.95631
rfingers 7.12502
rthumb 0.506447 -28.0228
lclavicle -4.37326e-015 -1.19271e-014
lhumerus -25.6278 7.00324 88.724
lradius 17.5433
lwrist -19.3046
lhand -26.3314 1.84368
lfingers 7.12502
lthumb 0.225712 31.8233
rfemur -27.8861 9.8519 18.8412
rtibia 23.3588
rfoot -4.88333 -15.8889
rtoes -11.3999
lfemur 5.40633 -12.7975 -28.788
ltibia 16.8721
lfoot -16.7023 3.8474
ltoes -18.8538
1395
root 3.13335 16.4049 -3.32382 158.737 -95.0788 -151.862
lowerback 1.32915 -0.413402 -1.69289
upperback 0.676001 -0.573052 0.788017
thorax -0.0280903 -0.293415 1.76347
lowerneck -19.044 0.612508 0.115291
upperneck 19.521 0.537141 0.822176
head 9.29153 0.320601 0.33135
rclavicle 1.59028e-015 3.57812e-015
rhumerus -30.6683 -5.6051 -81.7537
rradius 21.1943
rwrist 30.1771
rhand -26.0592 1.92823
rfingers 7.12502
rthumb 0.488558 -28.051
lclavicle 1.59028e-015 3.57812e-015
lhumerus -25.9898 7.52781 88.5858
lradius 17.2448
lwrist -19.7228
lhand -26.1011 1.94168
lfingers 7.12502
lthumb 0.448129 31.921
rfemur -27.6315 9.76108 19.0719
rtibia 23.6286
rfoot -5.22199 -15.8804
rtoes -11.4698
lfemur 4.87904 -12.5077 -28.6398
ltibia 18.4453
lfoot -16.576 3.44615
ltoes -20.1221
1396
root 3.11506 16.4162 -3.34099 159.696 -95.0986 -152.746
lowerback 1.16582 -0.408289 -1.53783
upperback 0.643465 -0.56207 0.819061
thorax 0.0283896 -0.287787 1.70689
lowerneck -19.0808 0.60284 0.130702
upperneck 19.6224 0.53195 0.758036
head 9.33378 0.311537 0.306404
rclavicle -3.97569e-015 -1.03368e-014
rhumerus -30.7267 -5.40814 -81.8471
rradius 21.2371
rwrist 29.9592
rhand -26.0188 1.96093
rfingers 7.12502
rthumb 0.527625 -28.0182
lclavicle -3.97569e-015 -1.03368e-014
lhumerus -26.3235 7.81959 88.4868
lradius 16.9837
lwrist -20.0222
lhand -25.7432 1.94367
lfingers 7.12502
lthumb 0.793725 31.9219
rfemur -27.245 9.5988 19.35
rtibia 23.7853
rfoot -5.65846 -15.7798
rtoes -11.0637
lfemur 4.344 -12.1699 -28.4146
ltibia 20.1243
lfoot -16.4221 2.89438
ltoes -20.948
1397
root 3.09619 16.4302 -3.36356 161.514 -95.092 -154.482
lowerback 0.989305 -0.394396 -1.35527
upperback 0.607288 -0.539675 0.863583
thorax 0.0880163 -0.276395 1.64856
lowerneck -19.0467 0.59011 0.134353
upperneck 19.6648 0.515376 0.742957
head 9.34251 0.301858 0.298306
rclavicle 7.95139e-015 -3.18055e-015
rhumerus -30.7613 -5.5491 -81.8528
rradius 21.2372
rwrist 30.2495
rhand -25.8266 1.92283
rfingers 7.12502
rthumb 0.71322 -28.0557
lclavicle 7.95139e-015 -3.18055e-015
lhumerus -26.636 7.67657 88.5072
lradius 16.748
lwrist -19.9441
lhand -25.357 2.00369
lfingers 7.12502
lthumb 1.16674 31.9802
rfemur -26.8246 9.59201 19.7047
rtibia 23.8355
rfoot -6.02292 -15.6877
rtoes -10.8835
lfemur 3.67527 -11.799 -28.0608
ltibia 21.9439
lfoot -16.1052 2.29696
ltoes -21.8166
1398
root 3.07685 16.4445 -3.38305 163.524 -95.1246 -156.465
lowerback 0.853075 -0.3987 -1.14603
upperback 0.574788 -0.542681 0.92401
thorax 0.129785 -0.277591 1.59213
lowerneck -19.0528 0.580763 0.154208
upperneck 19.8012 0.506426 0.685793
head 9.39151 0.291658 0.274382
rclavicle 7.15625e-015 -6.36111e-015
rhumerus -30.8037 -5.19412 -82.0381
rradius 21.2653
rwrist 29.8288
rhand -25.942 1.89232
rfingers 7.12502
rthumb 0.601724 -28.0866
lclavicle 7.15625e-015 -6.36111e-015
lhumerus -26.9461 8.04909 88.3668
lradius 16.443
lwrist -20.5509
lhand -24.9432 1.94166
lfingers 7.12502
lthumb 1.56642 31.9157
rfemur -26.2519 9.47753 20.0703
rtibia 23.7135
rfoot -6.36936 -15.4453
rtoes -10.5
lfemur 2.94134 -11.2973 -27.6778
ltibia 23.9439
lfoot -15.7035 1.61461
ltoes -22.8248
1399
root 3.05791 16.4551 -3.40485 165.1 -95.1362 -157.988
lowerback 0.681888 -0.374513 -0.980437
upperback 0.537847 -0.508217 0.960293
thorax 0.185502 -0.260116 1.53502
lowerneck -19.0702 0.575221 0.187459
upperneck 19.9664 0.489079 0.666361
head 9.45274 0.282763 0.260212
rclavicle -1.59028e-015 4.77083e-015
rhumerus -30.86 -5.10213 -82.1141
rradius 21.28
rwrist 29.7397
rhand -25.7311 1.91344
rfingers 7.12502
rthumb 0.805466 -28.0648
lclavicle -1.59028e-015 4.77083e-015
lhumerus -27.2443 8.03809 88.3075
lradius 16.2129
lwrist -20.8345
lhand -24.4908 1.98889
lfingers 7.12502
lthumb 2.00333 31.9592
rfemur -25.706 9.52793 20.3764
rtibia 23.5292
rfoot -6.60578 -15.3469
rtoes -10.1175
lfemur 2.07182 -10.7313 -27.3011
ltibia 26.1219
lfoot -15.222 0.91895
ltoes -23.7717
